# xmcd
# Track frame offsets:
# 150
# 19250
# 38218
# 57398
# 75158
#
# Disc length: 1319 seconds
# Revision: 0
# Processed by: cddbd v1.4PL0 Copyright (c) Steve Scherf et al.
# Submitted via: VisiTrax 2.9.5.181 - For more info visit www.synapsa.com
#
DISCID=32052505
DTITLE=Early Clover - You Gonna Need A Backup
DYEAR=2003
DGENRE=Blues
TTITLE0=(You Gonna Need A) Back Up
TTITLE1=(You Gonna Need A) Back Up (DJ--Radio Mix)
TTITLE2=Don't Hold Your Breath
TTITLE3=I Wanna Take A Chance (With You)
TTITLE4=Do You Dream
EXTD=
EXTT0=
EXTT1=
EXTT2=
EXTT3=
EXTT4=
PLAYORDER=
